<?xml version="1.0" encoding="UTF-8" standalone="no"?>
<!-- Created with Inkscape (http://www.inkscape.org/) -->

<svg
   xmlns:dc="http://purl.org/dc/elements/1.1/"
   xmlns:cc="http://creativecommons.org/ns#"
   xmlns:rdf="http://www.w3.org/1999/02/22-rdf-syntax-ns#"
   xmlns:svg="http://www.w3.org/2000/svg"
   xmlns="http://www.w3.org/2000/svg"
   xmlns:sodipodi="http://sodipodi.sourceforge.net/DTD/sodipodi-0.dtd"
   xmlns:inkscape="http://www.inkscape.org/namespaces/inkscape"
   width="64px"
   height="64px"
   id="svg3039"
   version="1.1"
   inkscape:version="0.48.4 r9939"
   sodipodi:docname="vision.svg"
   inkscape:export-filename="/home/juan/Desktop/icon.png"
   inkscape:export-xdpi="179.19594"
   inkscape:export-ydpi="179.19594">
  <defs
     id="defs3041">
    <inkscape:perspective
       sodipodi:type="inkscape:persp3d"
       inkscape:vp_x="0 : 32 : 1"
       inkscape:vp_y="0 : 1000 : 0"
       inkscape:vp_z="64 : 32 : 1"
       inkscape:persp3d-origin="32 : 21.333333 : 1"
       id="perspective4357" />
  </defs>
  <sodipodi:namedview
     id="base"
     pagecolor="#ffffff"
     bordercolor="#666666"
     borderopacity="1.0"
     inkscape:pageopacity="0.0"
     inkscape:pageshadow="2"
     inkscape:zoom="11"
     inkscape:cx="28.765956"
     inkscape:cy="31.76964"
     inkscape:current-layer="layer1"
     showgrid="true"
     inkscape:document-units="px"
     inkscape:grid-bbox="true"
     inkscape:window-width="1920"
     inkscape:window-height="1054"
     inkscape:window-x="1920"
     inkscape:window-y="0"
     inkscape:window-maximized="1" />
  <metadata
     id="metadata3044">
    <rdf:RDF>
      <cc:Work
         rdf:about="">
        <dc:format>image/svg+xml</dc:format>
        <dc:type
           rdf:resource="http://purl.org/dc/dcmitype/StillImage" />
        <dc:title></dc:title>
      </cc:Work>
    </rdf:RDF>
  </metadata>
  <g
     id="layer1"
     inkscape:label="Layer 1"
     inkscape:groupmode="layer"
     style="display:inline">
    <path
       sodipodi:type="arc"
       style="fill:#bb133e;fill-opacity:1;fill-rule:evenodd;stroke:#bb133e;stroke-width:1px;stroke-linecap:butt;stroke-linejoin:miter;stroke-opacity:1"
       id="path4325"
       sodipodi:cx="31.727272"
       sodipodi:cy="36.636364"
       sodipodi:rx="15.545455"
       sodipodi:ry="14.090909"
       d="m 47.272727,36.636364 a 15.545455,14.090909 0 1 1 -31.09091,0 15.545455,14.090909 0 1 1 31.09091,0 z"
       transform="matrix(1.9939984,0,0,2.2025582,-31.26413,-48.55736)" />
    <text
       xml:space="preserve"
       style="font-size:16px;font-style:normal;font-variant:normal;font-weight:bold;font-stretch:normal;line-height:125%;letter-spacing:0px;word-spacing:0px;fill:#4f4c4c;fill-opacity:1;stroke:none;font-family:Lohit Punjabi;-inkscape-font-specification:Lohit Punjabi Bold"
       x="5.090909"
       y="39.818184"
       id="text4327"
       sodipodi:linespacing="125%"><tspan
         sodipodi:role="line"
         id="tspan4329"
         x="5.090909"
         y="39.818184" /></text>
    <path
       style="fill:none;stroke:#ad133e;stroke-width:1.02753413px;stroke-linecap:butt;stroke-linejoin:miter;stroke-opacity:1"
       d="M 62.998208,24.650521 C 2.0081789,24.177674 1.6391016,40.538149 1.6391016,40.538149"
       id="path4377"
       inkscape:connector-curvature="0" />
    <path
       style="fill:#ad133e;fill-opacity:1;stroke:#ad133e;stroke-width:0.09090909000000000;stroke-opacity:1"
       d="M 30.095483,62.046426 C 28.786472,61.927873 27.092049,61.697061 26.140937,61.507744 16.022345,59.493656 7.5795892,52.298931 3.9621176,42.607456 c -0.41363,-1.108146 -1.139362,-3.612461 -1.139362,-3.931647 0,-0.41325 0.7947384,-1.539727 1.7847484,-2.529737 2.9519369,-2.951937 8.323662,-5.449011 15.715252,-7.305315 9.18004,-2.305452 22.906948,-3.64731 37.311151,-3.64731 l 3.454568,0 0.08947,0.340909 c 0.366234,1.395475 0.638606,3.634404 0.705032,5.795454 0.208147,6.771659 -1.886589,13.352037 -5.984939,18.801014 -4.921809,6.543813 -12.148093,10.716515 -20.34801,11.749631 -1.086996,0.136952 -4.596028,0.243724 -5.454545,0.165971 z"
       id="path4480"
       inkscape:connector-curvature="0" />
    <path
       style="fill:#ad133e;fill-opacity:1;stroke:#bb133e;stroke-width:0.09090909;stroke-opacity:1"
       d="M 30.458571,64.118676 C 23.981373,63.817591 17.848914,61.580787 12.616783,57.61091 7.5024074,53.73038 3.6239236,48.270665 1.6070069,42.112521 1.350367,41.328937 1.1403889,40.637986 1.1403889,40.577076 c 0,-0.07965 0.1379529,-0.09651 0.4912836,-0.06004 l 0.4912836,0.0507 0.060481,-0.322388 c 0.079912,-0.425967 0.4692175,-1.299039 0.5792458,-1.299039 0.047764,0 0.1372358,0.214773 0.1988254,0.477273 0.1886844,0.80419 0.9978252,3.248799 1.3615718,4.113636 1.7017561,4.046065 4.1015977,7.539452 7.1048409,10.342334 5.215968,4.867985 11.373732,7.579873 18.504744,8.149513 1.635905,0.13068 5.086156,-0.02448 6.756618,-0.303849 2.253661,-0.376903 4.346279,-0.958261 6.423154,-1.784441 10.738522,-4.271778 18.119891,-14.5289 18.739201,-26.03992 0.143845,-2.673642 -0.144414,-6.479902 -0.623075,-8.227273 -0.152158,-0.55546 -0.167216,-0.545455 0.820917,-0.545455 0.76874,0 0.909091,-0.02222 0.909091,-0.143939 0,-0.07917 0.05114,-0.126898 0.113636,-0.106069 0.131762,0.04391 0.437896,1.495471 0.675839,3.204554 0.206727,1.484863 0.235814,6.39581 0.04604,7.772727 -0.95591,6.935572 -3.385702,12.358676 -7.84078,17.5 -5.44145,6.279634 -13.959778,10.418768 -22.085641,10.731618 -0.675,0.02599 -1.390909,0.05896 -1.590909,0.07326 -0.2,0.0143 -1.018182,-0.0044 -1.818182,-0.0416 z"
       id="path4492"
       inkscape:connector-curvature="0" />
    <path
       style="fill:#ad133e;fill-opacity:1;stroke:#ad133e;stroke-width:0.09090909000000000;stroke-opacity:1"
       d="M 29.367662,64.034797 C 23.592273,63.51743 18.147544,61.511588 13.458571,58.173873 7.8955564,54.213999 3.6759824,48.448139 1.5872289,41.952215 1.0927278,40.414339 1.0753823,40.219869 1.3600438,39.405106 2.0689831,37.375966 3.9563488,35.258159 6.6858434,33.429044 15.499196,27.522958 33.705866,24.218831 57.640389,24.181868 l 5.363636,-0.0083 0,0.386481 c 0,0.212565 0.02628,0.386428 0.05839,0.386364 0.07761,-1.55e-4 0.302597,0.966639 0.550023,2.363519 0.184856,1.043622 0.201629,1.433136 0.205526,4.772727 0.0042,3.608136 0.0022,3.647287 -0.252912,5.043589 -0.974931,5.335082 -2.446175,9.021986 -5.214086,13.066389 -1.370356,2.00233 -2.857118,3.739815 -4.565362,5.335255 -4.935314,4.609408 -11.297806,7.575823 -17.963396,8.37516 -1.41022,0.169113 -5.178671,0.246022 -6.454545,0.131728 l 0,0 z m 2.433068,-1.97066 c -0.111813,-0.02158 -0.316358,-0.02214 -0.454546,-0.0012 -0.138187,0.0209 -0.0467,0.03855 0.203296,0.03923 0.25,6.36e-4 0.363063,-0.01642 0.25125,-0.03799 l 0,-4e-6 z m -2.092159,-0.08712 c -0.0625,-0.02522 -0.164773,-0.02522 -0.227273,0 -0.0625,0.02522 -0.01136,0.04585 0.113636,0.04585 0.125,0 0.176137,-0.02064 0.113637,-0.04585 z m 4.318182,-0.0025 c -0.0875,-0.02286 -0.230682,-0.02286 -0.318182,0 -0.0875,0.02287 -0.01591,0.04158 0.159091,0.04158 0.175,0 0.246591,-0.01871 0.159091,-0.04158 z m -5.274621,-0.08317 c -0.03021,-0.03021 -0.108619,-0.03344 -0.174243,-0.0072 -0.07252,0.02902 -0.05098,0.05056 0.05492,0.05492 0.09583,0.0039 0.149527,-0.01754 0.119319,-0.04775 l 0,-4e-6 z m 6.592802,-0.0053 c -0.0625,-0.02522 -0.164772,-0.02522 -0.227272,0 -0.0625,0.02522 -0.01136,0.04585 0.113636,0.04585 0.125,0 0.176136,-0.02063 0.113636,-0.04585 z m -7.229166,-0.08563 c -0.03021,-0.03021 -0.108618,-0.03344 -0.174243,-0.0072 -0.07252,0.02902 -0.05098,0.05056 0.05493,0.05492 0.09583,0.0039 0.149526,-0.01754 0.119318,-0.04775 l 0,-4e-6 z m 8,0 c -0.03021,-0.03021 -0.108618,-0.03344 -0.174243,-0.0072 -0.07252,0.02902 -0.05098,0.05056 0.05493,0.05492 0.09583,0.0039 0.149526,-0.01754 0.119318,-0.04775 l 0,-4e-6 z M 26.93395,61.618666 c -0.03021,-0.03021 -0.108618,-0.03344 -0.174243,-0.0072 -0.07252,0.02902 -0.05098,0.05056 0.05493,0.05492 0.09583,0.0039 0.149526,-0.01754 0.119318,-0.04775 l 0,-3e-6 z m 10.363636,0 c -0.03021,-0.03021 -0.108618,-0.03344 -0.174243,-0.0072 -0.07252,0.02902 -0.05098,0.05056 0.05493,0.05492 0.09583,0.0039 0.149526,-0.01754 0.119318,-0.04775 l 0,-3e-6 z M 13.958571,56.002898 c 0,-0.01888 -0.07159,-0.09047 -0.159091,-0.159091 -0.144187,-0.113079 -0.147403,-0.109864 -0.03432,0.03432 0.118761,0.151432 0.193415,0.199589 0.193415,0.124768 z M 13.594934,55.73017 c 0,-0.01888 -0.07159,-0.09047 -0.159091,-0.159091 -0.144187,-0.113079 -0.147402,-0.109863 -0.03432,0.03432 0.118761,0.151432 0.193414,0.199589 0.193414,0.124767 z m 37.011597,-0.124767 c 0.113079,-0.144187 0.109863,-0.147403 -0.03432,-0.03432 -0.0875,0.06862 -0.159091,0.140214 -0.159091,0.159091 0,0.07482 0.07465,0.02667 0.193415,-0.124767 z m -37.466142,-0.23591 c 0,-0.01725 -0.09205,-0.109296 -0.204546,-0.204545 l -0.204545,-0.173181 0.173181,0.204545 c 0.162747,0.192222 0.23591,0.245931 0.23591,0.173181 z M 51.185843,55.12813 c 0.0905,-0.1 0.14409,-0.181818 0.11909,-0.181818 -0.025,0 -0.1195,0.08182 -0.209999,0.181818 -0.0905,0.1 -0.144089,0.181819 -0.119089,0.181819 0.025,0 0.119499,-0.08182 0.209998,-0.181819 z M 12.594934,54.916704 c 0,-0.01628 -0.1125,-0.128784 -0.25,-0.25 l -0.25,-0.220392 0.220392,0.25 c 0.20599,0.233663 0.279608,0.29169 0.279608,0.220392 z m 39.136364,-0.243119 c 0.0905,-0.1 0.144089,-0.181818 0.119089,-0.181818 -0.025,0 -0.119499,0.08182 -0.209998,0.181818 -0.0905,0.1 -0.144089,0.181818 -0.119089,0.181818 0.025,0 0.119499,-0.08182 0.209998,-0.181818 z M 11.776753,54.194762 c 0,-0.01335 -0.460228,-0.47358 -1.022728,-1.022727 l -1.022727,-0.99845 0.99845,1.022727 c 0.927399,0.949949 1.047005,1.064008 1.047005,0.99845 z m 41.318181,-0.793904 c 0.447916,-0.45 0.793937,-0.818182 0.768937,-0.818182 -0.025,0 -0.41193,0.368182 -0.859846,0.818182 -0.447915,0.45 -0.793936,0.818181 -0.768936,0.818181 0.025,0 0.41193,-0.368181 0.859845,-0.818181 z m 1.369356,-1.477273 0.267008,-0.295455 -0.295455,0.267009 c -0.275405,0.248889 -0.33724,0.3239 -0.267008,0.3239 0.01565,0 0.1486,-0.132954 0.295455,-0.295454 z M 9.5040252,51.824039 c 0,-0.01725 -0.092045,-0.109297 -0.2045454,-0.204546 l -0.2045455,-0.173181 0.1731808,0.204546 c 0.162747,0.192221 0.2359101,0.245931 0.2359101,0.173181 z M 55.061076,51.241767 c 0.113079,-0.144188 0.109864,-0.147403 -0.03432,-0.03432 -0.0875,0.06862 -0.159091,0.140214 -0.159091,0.159091 0,0.07482 0.07465,0.02667 0.193414,-0.124767 z m -46.0115962,0.03682 c 0,-0.01725 -0.092046,-0.109296 -0.2045455,-0.204545 l -0.2045454,-0.173181 0.1731807,0.204545 c 0.1627471,0.192222 0.2359102,0.245931 0.2359102,0.173181 z M 55.424713,50.787221 c 0.113079,-0.144187 0.109863,-0.147402 -0.03432,-0.03432 -0.151432,0.118761 -0.199589,0.193414 -0.124767,0.193414 0.01888,0 0.09047,-0.07159 0.159091,-0.159091 z M 8.5949343,50.73017 c 0,-0.01888 -0.071591,-0.09047 -0.1590909,-0.159091 -0.1441869,-0.113079 -0.1474023,-0.109863 -0.034323,0.03432 0.1187609,0.151432 0.1934141,0.199589 0.1934141,0.124767 z M 56.061076,49.969039 c 0.113079,-0.144187 0.109864,-0.147402 -0.03432,-0.03432 -0.0875,0.06862 -0.159091,0.140213 -0.159091,0.159091 0,0.07482 0.07465,0.02666 0.193414,-0.124768 z M 2.0267525,40.520009 c -0.0875,-0.02287 -0.2306818,-0.02287 -0.3181818,0 -0.0875,0.02287 -0.015909,0.04158 0.1590909,0.04158 0.175,0 0.2465909,-0.01871 0.1590909,-0.04158 z m 0.7978601,-1.55614 c -0.02799,-0.02799 -0.1013449,-5.8e-5 -0.1630116,0.06207 -0.089115,0.08978 -0.078673,0.100226 0.05089,0.05089 0.089656,-0.03414 0.140111,-0.08497 0.1121212,-0.112962 z m 58.5596954,-1.21642 c -0.02902,-0.07252 -0.05056,-0.05098 -0.05492,0.05492 -0.0039,0.09583 0.01754,0.149526 0.04775,0.119318 0.03021,-0.03021 0.03344,-0.108618 0.0072,-0.174242 l 4e-6,0 z m 0.361743,-2.642046 c -0.02522,-0.0625 -0.04585,-0.01136 -0.04585,0.113636 0,0.125 0.02063,0.176137 0.04585,0.113637 0.02522,-0.0625 0.02522,-0.164773 0,-0.227273 z m 0.09091,-1 c -0.02522,-0.0625 -0.04585,-0.01136 -0.04585,0.113636 0,0.125 0.02063,0.176137 0.04585,0.113637 0.02522,-0.0625 0.02522,-0.164773 0,-0.227273 z m 0.004,-3.818182 c -0.02167,-0.1125 -0.0394,-0.02045 -0.0394,0.204546 0,0.225 0.01773,0.317045 0.0394,0.204545 0.02167,-0.1125 0.02167,-0.296591 0,-0.409091 z m -0.09486,-1.363636 c -0.02522,-0.0625 -0.04585,-0.01136 -0.04585,0.113636 0,0.125 0.02063,0.176137 0.04585,0.113637 0.02522,-0.0625 0.02522,-0.164773 0,-0.227273 z m -0.08901,-0.8125 c -0.02902,-0.07252 -0.05056,-0.05098 -0.05492,0.05492 -0.0039,0.09583 0.01754,0.149527 0.04775,0.119318 0.03021,-0.03021 0.03344,-0.108617 0.0072,-0.174242 l 4e-6,0 z m -0.09091,-0.818182 c -0.02902,-0.07252 -0.05056,-0.05098 -0.05492,0.05492 -0.0039,0.09583 0.01754,0.149527 0.04775,0.119319 0.03021,-0.03021 0.03344,-0.108618 0.0072,-0.174243 l 4e-6,0 z m -0.196059,-2.147216 c -0.02799,-0.02799 -0.101345,-5.7e-5 -0.163012,0.06207 -0.08911,0.08978 -0.07867,0.100225 0.05089,0.05089 0.08966,-0.03414 0.140111,-0.08497 0.112121,-0.112962 z"
       id="path4494"
       inkscape:connector-curvature="0" />
    <path
       style="fill:#ad133e;fill-opacity:1;stroke:#bb133e;stroke-width:0.09090909;stroke-opacity:1"
       d="m 12.445468,54.925112 c -0.0941,-0.152257 0.06194,-0.1962 0.201414,-0.05672 0.124099,0.124098 0.123456,0.138528 -0.0062,0.138528 -0.07958,0 -0.167443,-0.03681 -0.19525,-0.08181 l -1e-6,0 z"
       id="path4496"
       inkscape:connector-curvature="0" />
    <path
       style="fill:#ad133e;fill-opacity:1;stroke:#bb133e;stroke-width:0.02272727;stroke-opacity:1"
       d="m 2.5430485,39.113257 c 0.050283,-0.16581 0.3025983,-0.277504 0.336243,-0.148847 0.015599,0.05965 -0.068684,0.138345 -0.1857194,0.17341 -0.1367055,0.04096 -0.1688046,0.03572 -0.1505236,-0.02456 z"
       id="path4498"
       inkscape:connector-curvature="0" />
    <path
       style="fill:#ad133e;fill-opacity:1;stroke:#ad133e;stroke-width:0.01136364;stroke-opacity:1"
       d="m 12.545626,55.036906 c -0.06594,-0.01963 -0.110256,-0.05085 -0.136041,-0.09585 -0.03743,-0.06532 -0.0435,-0.102495 -0.02317,-0.141806 0.03314,-0.0641 0.09964,-0.07435 0.193305,-0.02982 0.0633,0.0301 0.179777,0.142994 0.198177,0.192092 0.0103,0.02748 0.0081,0.03563 -0.0159,0.05966 -0.02433,0.02433 -0.03755,0.02771 -0.105052,0.02685 -0.04247,-5.37e-4 -0.09256,-0.0055 -0.111312,-0.01112 z m 0.07901,-0.125199 c -0.05229,-0.05401 -0.09463,-0.07861 -0.135265,-0.07861 -0.03571,0 -0.03716,0.02062 -0.0044,0.06231 0.03076,0.03911 0.08138,0.06167 0.139634,0.06225 l 0.04492,4.45e-4 -0.04492,-0.04639 z"
       id="path4502"
       inkscape:connector-curvature="0" />
  </g>
  <g
     inkscape:groupmode="layer"
     id="layer2"
     inkscape:label="Layer"
     style="display:inline">
    <text
       xml:space="preserve"
       style="font-size:16px;font-style:normal;font-variant:normal;font-weight:normal;font-stretch:normal;line-height:125%;letter-spacing:0px;word-spacing:0px;fill:#000000;fill-opacity:1;stroke:none;display:inline;font-family:Lohit Punjabi;-inkscape-font-specification:Lohit Punjabi"
       x="3.1679688"
       y="37.824219"
       id="text4331-2"
       sodipodi:linespacing="125%"><tspan
         sodipodi:role="line"
         id="tspan4333-0"
         x="3.1679688"
         y="37.824219"><tspan
           style="font-weight:bold;fill:#4f4c4c;fill-opacity:1;-inkscape-font-specification:Lohit Punjabi Bold"
           id="tspan4337-5">VIS</tspan><tspan
           style="fill:#ffffff;fill-opacity:1"
           id="tspan4335-3">ION</tspan></tspan></text>
  </g>
</svg>
